
<svg width="839px" height="671px" viewBox="0 0 839 671" version="1.1" xmlns="http://www.w3.org/2000/svg" xmlns:xlink="http://www.w3.org/1999/xlink">
    <!-- Generator: Sketch 43.2 (39069) - http://www.bohemiancoding.com/sketch -->
    <desc>Created with Sketch.</desc>
    <defs></defs>
    <g id="Page-1" stroke="none" stroke-width="1" fill="none" fill-rule="evenodd">
        <g id="v3" fill="#E89A63">
            <polygon id="Triangle-2" points="419.5 542 484 671 355 671"></polygon>
            <polygon id="Triangle-2-Copy-24" points="490.5 671 426 542 555 542"></polygon>
            <polygon id="Triangle-2-Copy-22" points="348.5 671 284 542 413 542"></polygon>
            <polygon id="Triangle-2-Copy" points="348.5 406 413 535 284 535"></polygon>
            <polygon id="Triangle-2-Copy-20" points="277.5 535 213 406 342 406"></polygon>
            <polygon id="Triangle-2-Copy-21" points="419.5 535 355 406 484 406"></polygon>
            <polygon id="Triangle-2-Copy-28" points="561.5 535 497 406 626 406"></polygon>
            <polygon id="Triangle-2-Copy-2" points="490.5 406 555 535 426 535"></polygon>
            <polygon id="Triangle-2-Copy-3" points="277.5 270 342 399 213 399"></polygon>
            <polygon id="Triangle-2-Copy-9" points="419.5 270 484 399 355 399"></polygon>
            <polygon id="Triangle-2-Copy-19" points="206.5 399 142 270 271 270"></polygon>
            <polygon id="Triangle-2-Copy-30" points="632.5 399 568 270 697 270"></polygon>
            <polygon id="Triangle-2-Copy-25" points="490.5 399 426 270 555 270"></polygon>
            <polygon id="Triangle-2-Copy-23" points="348.5 399 284 270 413 270"></polygon>
            <polygon id="Triangle-2-Copy-6" points="561.5 270 626 399 497 399"></polygon>
            <polygon id="Triangle-2-Copy-10" points="348.5 135 413 264 284 264"></polygon>
            <polygon id="Triangle-2-Copy-11" points="490.5 135 555 264 426 264"></polygon>
            <polygon id="Triangle-2-Copy-4" points="206.5 135 271 264 142 264"></polygon>
            <polygon id="Triangle-2-Copy-14" points="135.5 264 71 135 200 135"></polygon>
            <polygon id="Triangle-2-Copy-17" points="277.5 264 213 135 342 135"></polygon>
            <polygon id="Triangle-2-Copy-31" points="703.5 264 639 135 768 135"></polygon>
            <polygon id="Triangle-2-Copy-26" points="561.5 264 497 135 626 135"></polygon>
            <polygon id="Triangle-2-Copy-7" points="632.5 135 697 264 568 264"></polygon>
            <polygon id="Triangle-2-Copy-13" points="277.5 0 342 129 213 129"></polygon>
            <polygon id="Triangle-2-Copy-12" points="561.5 0 626 129 497 129"></polygon>
            <polygon id="Triangle-2-Copy-5" points="135.5 0 200 129 71 129"></polygon>
            <polygon id="Triangle-2-Copy-15" points="64.5 129 0 0 129 0"></polygon>
            <polygon id="Triangle-2-Copy-16" points="206.5 129 142 0 271 0"></polygon>
            <polygon id="Triangle-2-Copy-32" points="774.5 129 710 0 839 0"></polygon>
            <polygon id="Triangle-2-Copy-27" points="632.5 129 568 0 697 0"></polygon>
            <polygon id="Triangle-2-Copy-8" points="703.5 0 768 129 639 129"></polygon>
        </g>
    </g>
</svg>
