<?xml version="1.0" encoding="utf-8"?>
<!-- Generator: Adobe Illustrator 16.0.0, SVG Export Plug-In . SVG Version: 6.00 Build 0)  -->
<!DOCTYPE svg PUBLIC "-//W3C//DTD SVG 1.1//EN" "http://www.w3.org/Graphics/SVG/1.1/DTD/svg11.dtd">
<svg version="1.1" id="Layer_1" xmlns="http://www.w3.org/2000/svg" xmlns:xlink="http://www.w3.org/1999/xlink" x="0px" y="0px"
	 width="1269.127px" height="895.879px" viewBox="0 0 1269.127 895.879" enable-background="new 0 0 1269.127 895.879"
	 xml:space="preserve">
<g>
	<g>
		<path d="M597.59,155.887h4.096v66.467h-4.096V155.887z"/>
		<path d="M694.044,189.12c0,4.841-0.714,9.388-2.141,13.638c-1.428,4.252-3.491,7.945-6.191,11.078
			c-2.699,3.135-6.004,5.602-9.914,7.4c-3.909,1.8-8.348,2.7-13.312,2.7c-4.966,0-9.419-0.9-13.358-2.7
			c-3.942-1.799-7.262-4.266-9.961-7.4c-2.7-3.133-4.764-6.826-6.19-11.078c-1.429-4.25-2.142-8.797-2.142-13.638
			s0.713-9.387,2.142-13.638c1.427-4.251,3.49-7.944,6.19-11.079c2.699-3.133,6.019-5.6,9.961-7.399c3.939-1.8,8.393-2.7,13.358-2.7
			c4.964,0,9.402,0.9,13.312,2.7c3.91,1.8,7.215,4.267,9.914,7.399c2.7,3.135,4.764,6.828,6.191,11.079
			C693.33,179.733,694.044,184.279,694.044,189.12z M634.931,189.12c0,4.281,0.619,8.317,1.861,12.102
			c1.241,3.786,3.041,7.091,5.4,9.914c2.357,2.825,5.243,5.073,8.657,6.75c3.412,1.675,7.292,2.513,11.637,2.513
			c4.343,0,8.206-0.838,11.589-2.513c3.383-1.677,6.253-3.925,8.612-6.75c2.357-2.823,4.156-6.128,5.398-9.914
			c1.241-3.784,1.862-7.82,1.862-12.102c0-4.282-0.621-8.316-1.862-12.103c-1.242-3.784-3.041-7.089-5.398-9.914
			c-2.359-2.823-5.229-5.073-8.612-6.749s-7.246-2.514-11.589-2.514c-4.345,0-8.225,0.838-11.637,2.514
			c-3.414,1.676-6.3,3.926-8.657,6.749c-2.359,2.825-4.159,6.13-5.4,9.914C635.55,180.804,634.931,184.838,634.931,189.12z"/>
		<path d="M711.285,159.424v-3.537h50.921v3.537h-23.459v62.93h-4.096v-62.93H711.285z"/>
		<path d="M776.305,222.291h-4.375l26.718-66.467h4.468l26.252,66.467h-4.375l-23.925-62.465h-0.187L776.305,222.291z"/>
	</g>
	<g>
		<circle cx="540.275" cy="130.948" r="7.868"/>
		<circle cx="542.473" cy="151.691" r="6.662"/>
		<circle cx="540.407" cy="169.161" r="5.634"/>
		<circle cx="535.262" cy="183.302" r="4.813"/>
		<circle cx="528.321" cy="193.98" r="4.135"/>
		<circle cx="520.568" cy="201.559" r="3.55"/>
		<circle cx="560.049" cy="154.133" r="6.688"/>
		<circle cx="557.848" cy="171.728" r="5.663"/>
		<circle cx="552.753" cy="185.787" r="4.789"/>
		<circle cx="545.756" cy="196.494" r="4.093"/>
		<circle cx="537.943" cy="203.987" r="3.514"/>
		<circle cx="530.057" cy="208.756" r="3.017"/>
		<circle cx="571.737" cy="176.874" r="5.695"/>
		<circle cx="566.567" cy="190.971" r="4.846"/>
		<circle cx="559.701" cy="201.672" r="4.187"/>
		<circle cx="551.89" cy="209.264" r="3.635"/>
		<circle cx="544.001" cy="214.035" r="3.106"/>
		<circle cx="536.559" cy="216.526" r="2.636"/>
		<circle cx="549.258" cy="240.947" r="7.867"/>
		<circle cx="530.189" cy="232.495" r="6.662"/>
		<circle cx="516.082" cy="221.981" r="5.634"/>
		<circle cx="506.399" cy="210.465" r="4.814"/>
		<circle cx="500.611" cy="199.122" r="4.135"/>
		<circle cx="497.916" cy="188.618" r="3.55"/>
		<circle cx="519.298" cy="246.503" r="6.687"/>
		<circle cx="505.151" cy="235.814" r="5.663"/>
		<circle cx="495.512" cy="224.38" r="4.789"/>
		<circle cx="489.729" cy="212.972" r="4.093"/>
		<circle cx="487.136" cy="202.462" r="3.515"/>
		<circle cx="486.941" cy="193.247" r="3.018"/>
		<circle cx="493.76" cy="245.278" r="5.695"/>
		<circle cx="484.125" cy="233.762" r="4.845"/>
		<circle cx="478.281" cy="222.47" r="4.186"/>
		<circle cx="475.602" cy="211.914" r="3.634"/>
		<circle cx="475.407" cy="202.695" r="3.105"/>
		<circle cx="476.964" cy="195.003" r="2.636"/>
		<circle cx="449.448" cy="193.751" r="7.867"/>
		<circle cx="466.319" cy="181.485" r="6.662"/>
		<circle cx="482.485" cy="174.547" r="5.635"/>
		<circle cx="497.304" cy="171.94" r="4.815"/>
		<circle cx="510.022" cy="172.616" r="4.134"/>
		<circle cx="520.46" cy="175.548" r="3.551"/>
		<path d="M457.722,158.639c3.536-1.067,7.267,0.935,8.335,4.471c1.067,3.534-0.935,7.267-4.47,8.332
			c-3.535,1.069-7.268-0.933-8.335-4.469C452.185,163.438,454.186,159.705,457.722,158.639z"/>
		<circle cx="475.994" cy="158.156" r="5.663"/>
		<circle cx="490.719" cy="155.546" r="4.789"/>
		<circle cx="503.489" cy="156.259" r="4.092"/>
		<circle cx="513.884" cy="159.282" r="3.514"/>
		<circle cx="521.956" cy="163.731" r="3.018"/>
		<circle cx="473.514" cy="143.555" r="5.696"/>
		<path d="M487.959,136.156c2.669-0.194,4.989,1.813,5.183,4.482c0.193,2.671-1.813,4.99-4.483,5.182
			c-2.668,0.196-4.988-1.811-5.183-4.479C483.281,138.67,485.288,136.351,487.959,136.156z"/>
		<circle cx="501.008" cy="141.591" r="4.187"/>
		<circle cx="511.487" cy="144.564" r="3.636"/>
		<circle cx="519.56" cy="149.015" r="3.105"/>
		<path d="M525.245,151.589c1.455-0.105,2.717,0.986,2.822,2.438c0.104,1.452-0.986,2.716-2.438,2.821
			c-1.451,0.104-2.717-0.988-2.821-2.439C522.703,152.957,523.796,151.694,525.245,151.589z"/>
	</g>
</g>
<g>
	<g>
		<path d="M669.078,372.52c0,4.518-3.66,8.178-8.174,8.178c-4.521,0-8.185-3.66-8.185-8.178c0-4.52,3.664-8.182,8.185-8.182
			C665.418,364.338,669.078,368,669.078,372.52z"/>
		<circle cx="663.185" cy="394.088" r="6.929"/>
		<circle cx="661.036" cy="412.25" r="5.857"/>
		<path d="M660.691,426.949c0,2.762-2.243,5.006-5.004,5.006c-2.765,0-5.008-2.244-5.008-5.006c0-2.761,2.243-5.004,5.008-5.004
			C658.448,421.945,660.691,424.188,660.691,426.949z"/>
		<path d="M652.767,438.056c0,2.375-1.922,4.297-4.293,4.297c-2.377,0-4.303-1.922-4.303-4.297c0-2.374,1.926-4.302,4.303-4.302
			C650.845,433.754,652.767,435.682,652.767,438.056z"/>
		<path d="M644.1,445.932c0,2.043-1.652,3.694-3.693,3.694c-2.038,0-3.687-1.651-3.687-3.694c0-2.038,1.648-3.689,3.687-3.689
			C642.447,442.242,644.1,443.894,644.1,445.932z"/>
		<path d="M688.229,398.206c-0.874,3.74-4.616,6.063-8.358,5.19c-3.738-0.876-6.061-4.616-5.183-8.356
			c0.877-3.74,4.616-6.06,8.354-5.185C686.783,390.732,689.103,394.47,688.229,398.206z"/>
		<path d="M684.905,416.262c-0.743,3.166-3.909,5.133-7.081,4.387c-3.163-0.738-5.128-3.909-4.385-7.073
			c0.739-3.165,3.91-5.134,7.07-4.39C683.679,409.93,685.646,413.096,684.905,416.262z"/>
		<path d="M678.72,430.672c-0.625,2.675-3.304,4.337-5.983,3.709c-2.674-0.627-4.337-3.301-3.711-5.981
			c0.623-2.677,3.307-4.337,5.983-3.712S679.351,427.992,678.72,430.672z"/>
		<path d="M670.743,441.637c-0.54,2.291-2.823,3.706-5.113,3.172c-2.287-0.539-3.709-2.824-3.171-5.111
			c0.53-2.287,2.82-3.711,5.109-3.172C669.855,437.061,671.276,439.351,670.743,441.637z"/>
		<path d="M662.031,449.292c-0.461,1.962-2.423,3.187-4.388,2.723c-1.964-0.458-3.183-2.425-2.725-4.393
			c0.458-1.96,2.426-3.184,4.391-2.72C661.276,445.361,662.491,447.324,662.031,449.292z"/>
		<path d="M653.333,454.133c-0.396,1.688-2.086,2.732-3.771,2.34c-1.688-0.398-2.736-2.084-2.342-3.773
			c0.396-1.686,2.084-2.734,3.768-2.342C652.678,450.756,653.726,452.443,653.333,454.133z"/>
		<path d="M698.939,422.848c-1.424,2.945-4.967,4.175-7.908,2.75c-2.945-1.424-4.175-4.966-2.748-7.912
			c1.421-2.939,4.958-4.172,7.905-2.75C699.13,416.363,700.365,419.905,698.939,422.848z"/>
		<path d="M692.77,437.117c-1.217,2.508-4.221,3.554-6.728,2.34c-2.508-1.209-3.551-4.223-2.345-6.728
			c1.217-2.504,4.227-3.548,6.731-2.343C692.937,431.602,693.985,434.615,692.77,437.117z"/>
		<path d="M685.014,447.947c-1.046,2.165-3.651,3.066-5.816,2.02c-2.161-1.045-3.066-3.645-2.018-5.813
			c1.046-2.162,3.651-3.07,5.812-2.019C685.159,443.182,686.062,445.784,685.014,447.947z"/>
		<path d="M676.377,455.594c-0.911,1.879-3.166,2.66-5.046,1.756c-1.879-0.908-2.665-3.174-1.759-5.053
			c0.913-1.877,3.173-2.662,5.047-1.756C676.498,451.451,677.286,453.713,676.377,455.594z"/>
		<path d="M667.676,460.311c-0.774,1.605-2.703,2.275-4.309,1.498c-1.605-0.773-2.277-2.708-1.5-4.311
			c0.777-1.602,2.705-2.275,4.311-1.498C667.786,456.775,668.453,458.702,667.676,460.311z"/>
		<path d="M659.504,462.686c-0.659,1.365-2.301,1.937-3.664,1.277c-1.359-0.658-1.933-2.298-1.274-3.66s2.301-1.934,3.663-1.275
			C659.591,459.688,660.163,461.329,659.504,462.686z"/>
		<path d="M666.155,493.969c-3.915-2.248-5.261-7.255-3.005-11.168c2.259-3.912,7.254-5.258,11.172-3.002
			c3.912,2.256,5.264,7.257,3.008,11.169C675.071,494.883,670.07,496.229,666.155,493.969z"/>
		<path d="M646.955,484.099c-3.313-1.907-4.461-6.14-2.544-9.458c1.908-3.313,6.14-4.453,9.462-2.545
			c3.311,1.908,4.449,6.148,2.538,9.461C654.503,484.873,650.27,486.013,646.955,484.099z"/>
		<path d="M632.821,472.246c-2.805-1.62-3.769-5.196-2.153-8.004c1.617-2.801,5.198-3.765,8-2.15
			c2.801,1.617,3.77,5.195,2.151,7.996C639.207,472.898,635.627,473.857,632.821,472.246z"/>
		<path d="M623.179,459.531c-2.392-1.383-3.216-4.441-1.837-6.839c1.383-2.392,4.438-3.217,6.838-1.835
			c2.392,1.381,3.215,4.439,1.832,6.836C628.635,460.087,625.574,460.91,623.179,459.531z"/>
		<path d="M617.515,447.125c-2.058-1.188-2.765-3.814-1.58-5.873c1.187-2.06,3.818-2.761,5.874-1.576
			c2.051,1.184,2.76,3.813,1.577,5.865C622.201,447.604,619.569,448.309,617.515,447.125z"/>
		<path d="M615.016,435.676c-1.765-1.016-2.374-3.271-1.354-5.041c1.018-1.766,3.273-2.37,5.04-1.354
			c1.763,1.018,2.371,3.275,1.354,5.043C619.038,436.086,616.78,436.693,615.016,435.676z"/>
		<circle cx="639.089" cy="492.665" r="6.954"/>
		<path d="M620.355,485.848c-2.374-2.227-2.495-5.95-0.273-8.324c2.225-2.375,5.95-2.493,8.324-0.274
			c2.372,2.228,2.495,5.95,0.273,8.325C626.456,487.949,622.733,488.067,620.355,485.848z"/>
		<path d="M610.953,473.298c-2.005-1.884-2.108-5.035-0.229-7.042c1.883-2.008,5.032-2.111,7.039-0.229
			c2.009,1.879,2.111,5.031,0.229,7.038C616.115,475.072,612.963,475.174,610.953,473.298z"/>
		<path d="M605.439,460.904c-1.717-1.602-1.804-4.296-0.198-6.012c1.611-1.713,4.296-1.805,6.012-0.199
			c1.717,1.609,1.804,4.3,0.199,6.017C609.846,462.423,607.155,462.514,605.439,460.904z"/>
		<path d="M603.15,449.541c-1.472-1.379-1.545-3.691-0.169-5.164c1.38-1.476,3.692-1.552,5.168-0.174
			c1.476,1.381,1.547,3.693,0.169,5.168C606.937,450.845,604.628,450.921,603.15,449.541z"/>
		<path d="M603.303,439.58c-1.266-1.182-1.332-3.169-0.146-4.434c1.185-1.266,3.171-1.331,4.437-0.143
			c1.263,1.184,1.331,3.168,0.143,4.434C606.553,440.702,604.565,440.77,603.303,439.58z"/>
		<path d="M607.638,494.722c-1.832-2.705-1.137-6.39,1.568-8.226c2.706-1.844,6.389-1.141,8.227,1.563
			c1.839,2.703,1.14,6.387-1.565,8.223C613.162,498.125,609.484,497.424,607.638,494.722z"/>
		<path d="M598.353,482.25c-1.567-2.302-0.968-5.436,1.333-7c2.298-1.563,5.434-0.969,6.999,1.328
			c1.566,2.302,0.968,5.438-1.331,7.001C603.05,485.145,599.921,484.551,598.353,482.25z"/>
		<path d="M592.844,470.119c-1.353-1.986-0.836-4.691,1.149-6.043c1.989-1.354,4.698-0.84,6.047,1.151
			c1.356,1.989,0.839,4.695-1.147,6.049C596.903,472.621,594.193,472.113,592.844,470.119z"/>
		<path d="M590.533,458.824c-1.171-1.727-0.727-4.074,0.997-5.25c1.728-1.175,4.074-0.729,5.25,0.998
			c1.177,1.725,0.73,4.08-1.001,5.25C594.055,460.998,591.709,460.546,590.533,458.824z"/>
		<path d="M590.787,448.93c-1.003-1.475-0.625-3.481,0.854-4.486c1.473-1.002,3.48-0.617,4.483,0.852
			c1.006,1.479,0.625,3.492-0.854,4.486C593.795,450.788,591.79,450.406,590.787,448.93z"/>
		<path d="M592.808,440.66c-0.85-1.256-0.524-2.957,0.721-3.814c1.254-0.848,2.961-0.523,3.812,0.73
			c0.852,1.249,0.528,2.959-0.723,3.807C595.358,442.236,593.657,441.912,592.808,440.66z"/>
		<path d="M562.378,430.729c3.913-2.257,8.913-0.914,11.171,2.999c2.26,3.912,0.911,8.915-2.998,11.174
			c-3.916,2.254-8.913,0.91-11.168-2.996C557.12,437.988,558.47,432.984,562.378,430.729z"/>
		<path d="M580.546,419.065c3.31-1.916,7.552-0.78,9.462,2.536c1.908,3.315,0.774,7.549-2.541,9.461
			c-3.313,1.908-7.551,0.771-9.461-2.536C576.094,425.208,577.235,420.973,580.546,419.065z"/>
		<path d="M597.886,412.773c2.801-1.614,6.388-0.653,8.002,2.146c1.616,2.807,0.653,6.391-2.145,8.007
			c-2.808,1.613-6.383,0.65-8.003-2.152C594.124,417.975,595.087,414.391,597.886,412.773z"/>
		<path d="M613.722,410.803c2.394-1.382,5.452-0.56,6.832,1.835c1.385,2.397,0.56,5.453-1.829,6.835
			c-2.397,1.383-5.458,0.563-6.841-1.838C610.504,415.244,611.326,412.186,613.722,410.803z"/>
		<path d="M627.295,412.117c2.062-1.185,4.684-0.48,5.871,1.578c1.188,2.054,0.48,4.686-1.574,5.868
			c-2.055,1.19-4.686,0.485-5.868-1.573C624.534,415.933,625.24,413.305,627.295,412.117z"/>
		<path d="M638.453,415.69c1.768-1.015,4.025-0.41,5.042,1.354c1.021,1.767,0.414,4.024-1.353,5.042
			c-1.766,1.015-4.021,0.416-5.041-1.352C636.084,418.967,636.691,416.711,638.453,415.69z"/>
		<path d="M575.067,401.307c3.675-1.107,7.556,0.974,8.664,4.65c1.111,3.676-0.971,7.557-4.646,8.664
			c-3.672,1.108-7.554-0.972-8.662-4.646C569.31,406.297,571.39,402.418,575.067,401.307z"/>
		<path d="M592.365,395.17c3.114-0.94,6.394,0.824,7.338,3.934c0.94,3.115-0.825,6.401-3.935,7.344
			c-3.115,0.936-6.397-0.826-7.342-3.938C587.49,399.399,589.249,396.109,592.365,395.17z"/>
		<path d="M607.938,393.327c2.628-0.8,5.409,0.69,6.203,3.324c0.795,2.636-0.693,5.411-3.33,6.208
			c-2.628,0.795-5.411-0.695-6.204-3.324C603.809,396.9,605.303,394.123,607.938,393.327z"/>
		<path d="M621.428,394.764c2.244-0.679,4.615,0.59,5.299,2.844c0.677,2.248-0.595,4.622-2.844,5.303
			c-2.25,0.676-4.628-0.597-5.302-2.846C617.902,397.813,619.174,395.439,621.428,394.764z"/>
		<path d="M632.406,398.48c1.929-0.582,3.966,0.506,4.554,2.439c0.582,1.935-0.514,3.973-2.445,4.557
			c-1.934,0.584-3.969-0.512-4.554-2.445C629.376,401.104,630.47,399.063,632.406,398.48z"/>
		<path d="M640.943,403.603c1.665-0.505,3.408,0.437,3.912,2.093c0.5,1.664-0.438,3.411-2.098,3.912
			c-1.66,0.5-3.406-0.439-3.909-2.098C638.349,405.848,639.287,404.098,640.943,403.603z"/>
		<path d="M591.059,379.723c3.261-0.237,6.1,2.21,6.336,5.475c0.234,3.26-2.22,6.096-5.479,6.336
			c-3.26,0.237-6.099-2.217-6.333-5.476C585.35,382.792,587.8,379.956,591.059,379.723z"/>
		<path d="M606.507,377.933c2.773-0.2,5.19,1.886,5.389,4.659c0.2,2.779-1.883,5.189-4.665,5.39
			c-2.772,0.205-5.185-1.886-5.384-4.655C601.643,380.548,603.73,378.137,606.507,377.933z"/>
		<path d="M619.76,379.244c2.396-0.174,4.483,1.629,4.655,4.028c0.173,2.397-1.628,4.479-4.024,4.656
			c-2.4,0.169-4.483-1.632-4.66-4.028C615.558,381.498,617.359,379.417,619.76,379.244z"/>
		<path d="M630.696,382.906c2.08-0.151,3.89,1.415,4.042,3.496c0.149,2.082-1.416,3.892-3.496,4.042
			c-2.084,0.152-3.893-1.413-4.043-3.491C627.047,384.867,628.613,383.061,630.696,382.906z"/>
		<path d="M639.128,388.081c1.78-0.127,3.328,1.206,3.457,2.988c0.128,1.778-1.209,3.323-2.987,3.454
			c-1.78,0.129-3.328-1.207-3.454-2.986C636.013,389.758,637.35,388.214,639.128,388.081z"/>
		<path d="M645.271,393.978c1.512-0.104,2.826,1.026,2.934,2.536c0.107,1.509-1.026,2.824-2.535,2.934
			c-1.507,0.11-2.821-1.028-2.932-2.538C642.629,395.402,643.764,394.09,645.271,393.978z"/>
	</g>
	<g>
		<path d="M520.593,525.635h4.194v68.078h-4.194V525.635z"/>
		<path d="M619.384,559.672c0,4.962-0.732,9.614-2.197,13.971c-1.456,4.355-3.573,8.139-6.338,11.344
			c-2.767,3.211-6.148,5.739-10.153,7.582c-4.006,1.842-8.549,2.768-13.636,2.768c-5.086,0-9.649-0.926-13.679-2.768
			c-4.04-1.843-7.44-4.371-10.205-7.582c-2.765-3.205-4.883-6.988-6.338-11.344c-1.468-4.356-2.197-9.009-2.197-13.971
			c0-4.955,0.729-9.611,2.197-13.967c1.455-4.353,3.573-8.136,6.338-11.346c2.765-3.209,6.165-5.732,10.205-7.58
			c4.029-1.842,8.593-2.764,13.679-2.764c5.087,0,9.63,0.922,13.636,2.764c4.005,1.848,7.387,4.371,10.153,7.58
			c2.765,3.21,4.882,6.993,6.338,11.346C618.651,550.061,619.384,554.717,619.384,559.672z M558.836,559.672
			c0,4.389,0.637,8.523,1.905,12.396c1.271,3.88,3.115,7.266,5.533,10.157c2.416,2.892,5.37,5.195,8.866,6.914
			c3.497,1.713,7.47,2.573,11.919,2.573s8.403-0.86,11.869-2.573c3.466-1.719,6.405-4.022,8.822-6.914
			c2.414-2.892,4.257-6.277,5.532-10.157c1.266-3.872,1.904-8.007,1.904-12.396c0-4.383-0.639-8.514-1.904-12.393
			c-1.275-3.875-3.118-7.262-5.532-10.156c-2.417-2.889-5.356-5.192-8.822-6.91c-3.466-1.717-7.42-2.576-11.869-2.576
			s-8.422,0.859-11.919,2.576c-3.496,1.718-6.45,4.021-8.866,6.91c-2.418,2.895-4.262,6.281-5.533,10.156
			C559.473,551.158,558.836,555.289,558.836,559.672z"/>
		<path d="M637.04,529.262v-3.627h52.153v3.627h-24.025v64.451h-4.195v-64.451H637.04z"/>
		<path d="M703.636,593.648h-4.481l27.363-68.075h4.578l26.885,68.075h-4.479l-24.506-63.977h-0.19L703.636,593.648z"/>
	</g>
</g>
<g>
	<path d="M628.429,777.729c-3.915-2.248-5.261-7.254-3.005-11.168c2.259-3.912,7.254-5.258,11.172-3.002
		c3.912,2.256,5.264,7.258,3.008,11.17C637.345,778.644,632.344,779.989,628.429,777.729z"/>
	<path d="M619.078,759.189c-2.805-1.62-3.769-5.196-2.153-8.004c1.617-2.801,5.198-3.765,8-2.15c2.801,1.617,3.77,5.195,2.151,7.996
		C625.463,759.842,621.883,760.801,619.078,759.189z"/>
	<path d="M616.467,743.854c-1.765-1.016-2.374-3.271-1.354-5.041c1.018-1.766,3.273-2.37,5.04-1.354
		c1.763,1.018,2.371,3.275,1.354,5.043C620.49,744.264,618.232,744.871,616.467,743.854z"/>
	<path d="M604.716,717.3c3.898-2.275,8.912-0.949,11.182,2.955c2.268,3.906,0.947,8.908-2.958,11.184
		c-3.905,2.27-8.915,0.951-11.184-2.953C599.484,724.577,600.807,719.569,604.716,717.3z"/>
	<path d="M625.295,718.54c2.801-1.625,6.383-0.682,8.014,2.117c1.623,2.797,0.677,6.383-2.119,8.009
		c-2.797,1.624-6.383,0.682-8.004-2.116C621.55,723.753,622.501,720.17,625.295,718.54z"/>
	<circle cx="641.75" cy="727.008" r="3.691"/>
	<path d="M668.851,726.96c0.011,4.515-3.655,8.184-8.171,8.187c-4.516-0.001-8.178-3.654-8.186-8.175
		c0-4.516,3.654-8.187,8.17-8.188C665.185,718.78,668.851,722.439,668.851,726.96z"/>
	<path d="M657.446,744.133c-0.001,3.238-2.616,5.862-5.856,5.867c-3.234-0.001-5.858-2.619-5.86-5.854
		c0-3.233,2.615-5.861,5.849-5.857C654.818,738.278,657.438,740.898,657.446,744.133z"/>
	<path d="M645.55,754.108c0.002,2.037-1.646,3.692-3.689,3.692c-2.037,0.001-3.688-1.65-3.691-3.688
		c-0.001-2.036,1.65-3.691,3.69-3.693C643.895,750.419,645.548,752.072,645.55,754.108z"/>
</g>
<g>
	<path d="M955.019,829.054v-0.813h2.268v-2.612c0-0.443,0.073-0.825,0.222-1.146c0.147-0.32,0.349-0.579,0.604-0.776
		s0.551-0.345,0.888-0.443c0.336-0.099,0.693-0.148,1.071-0.148c0.329,0,0.698,0.041,1.109,0.123v0.813
		c-0.411-0.082-0.78-0.123-1.109-0.123c-0.525,0-0.965,0.119-1.318,0.357s-0.529,0.711-0.529,1.417v2.538h2.637v0.813h-2.637v11.854
		h-0.937v-11.854H955.019z"/>
	<path d="M961.747,834.574c0-0.903,0.127-1.753,0.382-2.551c0.254-0.797,0.628-1.499,1.121-2.106
		c0.493-0.608,1.101-1.089,1.823-1.442c0.724-0.353,1.553-0.529,2.489-0.529s1.767,0.177,2.489,0.529
		c0.723,0.354,1.331,0.834,1.824,1.442c0.492,0.607,0.866,1.31,1.121,2.106c0.255,0.798,0.382,1.647,0.382,2.551
		c0,0.904-0.127,1.759-0.382,2.563s-0.629,1.508-1.121,2.107c-0.493,0.6-1.102,1.076-1.824,1.429
		c-0.723,0.354-1.553,0.53-2.489,0.53s-1.766-0.177-2.489-0.53c-0.723-0.353-1.33-0.829-1.823-1.429s-0.867-1.303-1.121-2.107
		C961.874,836.333,961.747,835.479,961.747,834.574z M962.684,834.574c0,0.756,0.106,1.483,0.32,2.182
		c0.213,0.698,0.525,1.318,0.937,1.86c0.41,0.542,0.92,0.974,1.527,1.294c0.608,0.32,1.307,0.48,2.095,0.48
		c0.789,0,1.487-0.16,2.095-0.48c0.608-0.32,1.117-0.752,1.528-1.294c0.41-0.542,0.723-1.162,0.937-1.86s0.32-1.426,0.32-2.182
		c0-0.755-0.106-1.482-0.32-2.181s-0.526-1.318-0.937-1.861c-0.411-0.542-0.92-0.973-1.528-1.293
		c-0.607-0.321-1.306-0.481-2.095-0.481c-0.788,0-1.486,0.16-2.095,0.481c-0.607,0.32-1.117,0.751-1.527,1.293
		c-0.411,0.543-0.724,1.163-0.937,1.861C962.79,833.092,962.684,833.819,962.684,834.574z"/>
	<path d="M975.572,828.24h0.937v2.711h0.05c0.164-0.476,0.397-0.899,0.702-1.269c0.304-0.37,0.657-0.686,1.06-0.949
		c0.402-0.263,0.842-0.46,1.318-0.591c0.477-0.132,0.961-0.197,1.454-0.197c0.739,0,1.368,0.09,1.886,0.271
		c0.518,0.182,0.94,0.419,1.269,0.715c0.329,0.296,0.588,0.629,0.776,0.998c0.189,0.37,0.324,0.744,0.407,1.121
		c0.082,0.379,0.131,0.744,0.147,1.097c0.017,0.354,0.024,0.662,0.024,0.925v7.837h-0.937v-8.01c0-0.328-0.024-0.727-0.073-1.195
		c-0.05-0.468-0.193-0.92-0.432-1.355c-0.238-0.435-0.6-0.809-1.084-1.121c-0.485-0.312-1.154-0.469-2.009-0.469
		c-0.707,0-1.343,0.132-1.91,0.395c-0.566,0.264-1.047,0.629-1.441,1.097c-0.395,0.469-0.694,1.027-0.899,1.676
		c-0.206,0.649-0.309,1.36-0.309,2.132v6.852h-0.937V828.24z"/>
	<path d="M993.021,829.054h-2.761v8.848c0,0.51,0.058,0.912,0.173,1.208s0.292,0.518,0.53,0.665
		c0.237,0.148,0.525,0.243,0.862,0.283c0.337,0.042,0.727,0.054,1.171,0.037v0.813c-0.477,0.033-0.941,0.028-1.393-0.013
		c-0.452-0.04-0.851-0.164-1.195-0.369s-0.62-0.514-0.826-0.925c-0.205-0.41-0.291-0.977-0.259-1.7v-8.848h-2.341v-0.813h2.341
		v-3.942h0.937v3.942h2.761V829.054z"/>
	<path d="M997.407,828.24v2.539h-1.257v-2.539H997.407z M996.15,840.908v-2.538h1.257v2.538H996.15z"/>
	<path d="M1009.704,832.233v8.675h-1.084v-17.597h1.084v7.985h11.238v-7.985h1.085v17.597h-1.085v-8.675H1009.704z"/>
	<path d="M1025.33,834.697c-0.017,0.74,0.069,1.454,0.259,2.145c0.188,0.69,0.48,1.298,0.875,1.823
		c0.394,0.526,0.883,0.945,1.466,1.258c0.583,0.312,1.27,0.468,2.058,0.468c1.199,0,2.197-0.333,2.995-0.998
		c0.797-0.665,1.31-1.59,1.54-2.772h0.937c-0.246,1.495-0.842,2.633-1.787,3.413c-0.944,0.78-2.173,1.171-3.685,1.171
		c-0.92,0-1.733-0.169-2.439-0.506c-0.707-0.336-1.294-0.796-1.762-1.38c-0.469-0.583-0.822-1.265-1.061-2.045
		s-0.349-1.606-0.332-2.478c-0.017-0.87,0.086-1.717,0.308-2.538s0.567-1.553,1.035-2.193c0.469-0.641,1.056-1.154,1.763-1.54
		c0.706-0.386,1.536-0.579,2.488-0.579c0.986,0,1.841,0.181,2.563,0.542s1.314,0.85,1.774,1.466s0.793,1.336,0.998,2.157
		s0.283,1.684,0.234,2.587H1025.33z M1034.621,833.885c-0.017-0.657-0.132-1.298-0.345-1.923c-0.214-0.624-0.518-1.171-0.912-1.639
		c-0.395-0.469-0.875-0.846-1.441-1.134c-0.567-0.287-1.212-0.432-1.936-0.432c-0.706,0-1.335,0.148-1.885,0.444
		c-0.551,0.296-1.022,0.686-1.417,1.17c-0.395,0.485-0.707,1.035-0.937,1.651c-0.23,0.616-0.37,1.236-0.419,1.861H1034.621z"/>
	<path d="M1038.908,823.312v17.597h-0.937v-17.597H1038.908z"/>
	<path d="M1046.722,840.908h-1.159l-5.101-12.668h1.084l4.584,11.584h0.049l4.289-11.584h1.034L1046.722,840.908z"/>
	<path d="M1053.203,834.697c-0.017,0.74,0.069,1.454,0.259,2.145c0.188,0.69,0.48,1.298,0.875,1.823
		c0.394,0.526,0.883,0.945,1.466,1.258c0.583,0.312,1.27,0.468,2.058,0.468c1.199,0,2.197-0.333,2.995-0.998
		c0.797-0.665,1.31-1.59,1.54-2.772h0.937c-0.246,1.495-0.842,2.633-1.787,3.413c-0.944,0.78-2.173,1.171-3.685,1.171
		c-0.92,0-1.733-0.169-2.439-0.506c-0.707-0.336-1.294-0.796-1.762-1.38c-0.469-0.583-0.822-1.265-1.061-2.045
		s-0.349-1.606-0.332-2.478c-0.017-0.87,0.086-1.717,0.308-2.538s0.567-1.553,1.035-2.193c0.469-0.641,1.056-1.154,1.763-1.54
		c0.706-0.386,1.536-0.579,2.488-0.579c0.986,0,1.841,0.181,2.563,0.542s1.314,0.85,1.774,1.466s0.793,1.336,0.998,2.157
		s0.283,1.684,0.234,2.587H1053.203z M1062.494,833.885c-0.017-0.657-0.132-1.298-0.345-1.923c-0.214-0.624-0.518-1.171-0.912-1.639
		c-0.395-0.469-0.875-0.846-1.441-1.134c-0.567-0.287-1.212-0.432-1.936-0.432c-0.706,0-1.335,0.148-1.885,0.444
		c-0.551,0.296-1.022,0.686-1.417,1.17c-0.395,0.485-0.707,1.035-0.937,1.651c-0.23,0.616-0.37,1.236-0.419,1.861H1062.494z"/>
	<path d="M1070.281,829.054h-2.761v8.848c0,0.51,0.058,0.912,0.173,1.208s0.292,0.518,0.53,0.665
		c0.237,0.148,0.525,0.243,0.862,0.283c0.337,0.042,0.727,0.054,1.171,0.037v0.813c-0.477,0.033-0.941,0.028-1.393-0.013
		c-0.452-0.04-0.851-0.164-1.195-0.369s-0.62-0.514-0.826-0.925c-0.205-0.41-0.291-0.977-0.259-1.7v-8.848h-2.341v-0.813h2.341
		v-3.942h0.937v3.942h2.761V829.054z"/>
	<path d="M1072.228,825.851v-2.539h0.937v2.539H1072.228z M1072.228,840.908V828.24h0.937v12.668H1072.228z"/>
	<path d="M1085.685,832.159c-0.05-0.559-0.193-1.051-0.432-1.479c-0.238-0.427-0.546-0.78-0.924-1.06s-0.817-0.493-1.318-0.641
		c-0.502-0.148-1.04-0.223-1.614-0.223c-0.789,0-1.487,0.16-2.095,0.481c-0.608,0.32-1.118,0.747-1.528,1.281
		c-0.411,0.534-0.724,1.142-0.937,1.823c-0.214,0.683-0.32,1.385-0.32,2.107c0,0.854,0.099,1.644,0.296,2.366
		s0.501,1.352,0.911,1.885c0.411,0.534,0.92,0.949,1.528,1.245c0.607,0.296,1.322,0.443,2.145,0.443
		c0.591,0,1.137-0.099,1.639-0.296c0.501-0.197,0.944-0.468,1.331-0.813c0.386-0.345,0.702-0.76,0.948-1.244
		c0.247-0.484,0.411-1.015,0.493-1.59h0.937c-0.099,0.756-0.309,1.43-0.629,2.021c-0.32,0.591-0.714,1.088-1.183,1.49
		c-0.468,0.403-1.002,0.711-1.602,0.925c-0.601,0.213-1.245,0.32-1.935,0.32c-1.035,0-1.919-0.185-2.649-0.555
		c-0.731-0.37-1.331-0.866-1.8-1.491c-0.468-0.624-0.813-1.343-1.035-2.156c-0.222-0.813-0.332-1.663-0.332-2.551
		c0-0.887,0.127-1.725,0.382-2.514s0.628-1.479,1.121-2.07s1.101-1.06,1.824-1.404c0.723-0.346,1.553-0.518,2.489-0.518
		c0.689,0,1.334,0.086,1.935,0.259c0.6,0.172,1.134,0.431,1.602,0.776c0.469,0.345,0.851,0.78,1.146,1.306
		c0.295,0.526,0.476,1.15,0.542,1.873H1085.685z"/>
	<path d="M1098.278,838.545c0,0.181,0.004,0.361,0.012,0.541c0.009,0.181,0.037,0.345,0.087,0.492
		c0.049,0.147,0.131,0.267,0.246,0.357c0.115,0.09,0.279,0.135,0.493,0.135c0.164,0,0.395-0.024,0.69-0.074v0.813
		c-0.132,0.033-0.259,0.058-0.383,0.074c-0.123,0.017-0.25,0.024-0.382,0.024c-0.378,0-0.678-0.049-0.899-0.147
		s-0.391-0.23-0.505-0.395c-0.115-0.164-0.193-0.357-0.234-0.579s-0.062-0.464-0.062-0.728v-0.665h-0.05
		c-0.147,0.378-0.361,0.735-0.641,1.072s-0.62,0.637-1.022,0.899c-0.403,0.263-0.858,0.468-1.368,0.616
		c-0.509,0.147-1.068,0.222-1.676,0.222c-0.591,0-1.146-0.062-1.663-0.185c-0.518-0.124-0.97-0.324-1.355-0.604
		c-0.387-0.279-0.687-0.645-0.899-1.097c-0.214-0.451-0.32-1.014-0.32-1.688c0-0.74,0.144-1.344,0.431-1.812
		c0.287-0.469,0.657-0.838,1.109-1.109c0.451-0.271,0.952-0.464,1.503-0.579s1.089-0.197,1.614-0.246
		c1.052-0.065,1.869-0.144,2.452-0.234c0.583-0.09,1.015-0.23,1.294-0.419s0.452-0.436,0.518-0.739s0.099-0.719,0.099-1.245
		c0-0.147-0.049-0.357-0.147-0.628c-0.099-0.271-0.275-0.546-0.53-0.826c-0.255-0.279-0.612-0.521-1.072-0.727
		s-1.052-0.309-1.774-0.309c-1.134,0-2.05,0.288-2.748,0.863s-1.08,1.413-1.146,2.514h-0.937c0.065-1.396,0.514-2.444,1.343-3.143
		c0.83-0.698,1.992-1.047,3.487-1.047c0.559,0,1.101,0.049,1.627,0.147c0.525,0.099,0.998,0.271,1.417,0.517
		s0.756,0.582,1.011,1.009c0.254,0.426,0.382,0.967,0.382,1.622V838.545z M1097.342,833.712c-0.181,0.214-0.436,0.374-0.764,0.48
		c-0.329,0.107-0.703,0.185-1.122,0.234c-0.419,0.049-0.858,0.09-1.318,0.123s-0.92,0.082-1.38,0.147
		c-1.117,0.132-1.976,0.415-2.575,0.851c-0.601,0.436-0.899,1.13-0.899,2.083c0,0.772,0.274,1.425,0.825,1.959
		c0.55,0.534,1.384,0.801,2.501,0.801c1.068,0,1.914-0.193,2.539-0.579c0.624-0.386,1.101-0.829,1.43-1.331
		c0.328-0.501,0.537-0.985,0.628-1.454c0.09-0.468,0.136-0.784,0.136-0.948V833.712z"/>
	<path d="M1108.284,823.312h1.355l11.115,16.143h0.049v-16.143h1.084v17.597h-1.281l-11.188-16.266h-0.05v16.266h-1.084V823.312z"/>
	<path d="M1125.19,834.697c-0.017,0.74,0.069,1.454,0.259,2.145c0.188,0.69,0.48,1.298,0.875,1.823
		c0.394,0.526,0.883,0.945,1.466,1.258c0.583,0.312,1.27,0.468,2.058,0.468c1.199,0,2.197-0.333,2.995-0.998
		c0.797-0.665,1.31-1.59,1.54-2.772h0.937c-0.246,1.495-0.842,2.633-1.787,3.413c-0.944,0.78-2.173,1.171-3.685,1.171
		c-0.92,0-1.733-0.169-2.439-0.506c-0.707-0.336-1.294-0.796-1.762-1.38c-0.469-0.583-0.822-1.265-1.061-2.045
		s-0.349-1.606-0.332-2.478c-0.017-0.87,0.086-1.717,0.308-2.538s0.567-1.553,1.035-2.193c0.469-0.641,1.056-1.154,1.763-1.54
		c0.706-0.386,1.536-0.579,2.488-0.579c0.986,0,1.841,0.181,2.563,0.542s1.314,0.85,1.774,1.466s0.793,1.336,0.998,2.157
		s0.283,1.684,0.234,2.587H1125.19z M1134.481,833.885c-0.017-0.657-0.132-1.298-0.345-1.923c-0.214-0.624-0.518-1.171-0.912-1.639
		c-0.395-0.469-0.875-0.846-1.441-1.134c-0.567-0.287-1.212-0.432-1.936-0.432c-0.706,0-1.335,0.148-1.885,0.444
		c-0.551,0.296-1.022,0.686-1.417,1.17c-0.395,0.485-0.707,1.035-0.937,1.651c-0.23,0.616-0.37,1.236-0.419,1.861H1134.481z"/>
	<path d="M1147.641,840.908h-0.937v-2.711h-0.049c-0.164,0.477-0.398,0.899-0.702,1.27c-0.305,0.369-0.657,0.686-1.06,0.948
		c-0.403,0.264-0.843,0.46-1.319,0.592c-0.477,0.131-0.961,0.197-1.453,0.197c-0.74,0-1.368-0.091-1.886-0.271
		s-0.94-0.419-1.27-0.715c-0.329-0.295-0.587-0.628-0.776-0.998c-0.188-0.369-0.324-0.743-0.406-1.121s-0.132-0.743-0.148-1.097
		c-0.016-0.354-0.024-0.661-0.024-0.924v-7.838h0.937v8.01c0,0.329,0.024,0.728,0.074,1.195c0.049,0.469,0.192,0.921,0.432,1.355
		c0.237,0.436,0.595,0.81,1.071,1.122c0.477,0.312,1.15,0.468,2.021,0.468c0.706,0,1.343-0.131,1.91-0.395
		c0.566-0.263,1.047-0.628,1.441-1.097c0.395-0.468,0.693-1.026,0.899-1.676c0.205-0.648,0.308-1.359,0.308-2.132v-6.852h0.937
		V840.908z"/>
	<path d="M1150.771,834.697c-0.017,0.74,0.069,1.454,0.259,2.145c0.188,0.69,0.48,1.298,0.875,1.823
		c0.394,0.526,0.883,0.945,1.466,1.258c0.583,0.312,1.27,0.468,2.058,0.468c1.199,0,2.197-0.333,2.995-0.998
		c0.797-0.665,1.31-1.59,1.54-2.772h0.937c-0.246,1.495-0.842,2.633-1.787,3.413c-0.944,0.78-2.173,1.171-3.685,1.171
		c-0.92,0-1.733-0.169-2.439-0.506c-0.707-0.336-1.294-0.796-1.762-1.38c-0.469-0.583-0.822-1.265-1.061-2.045
		s-0.349-1.606-0.332-2.478c-0.017-0.87,0.086-1.717,0.308-2.538s0.567-1.553,1.035-2.193c0.469-0.641,1.056-1.154,1.763-1.54
		c0.706-0.386,1.536-0.579,2.488-0.579c0.986,0,1.841,0.181,2.563,0.542s1.314,0.85,1.774,1.466s0.793,1.336,0.998,2.157
		s0.283,1.684,0.234,2.587H1150.771z M1160.063,833.885c-0.017-0.657-0.132-1.298-0.345-1.923c-0.214-0.624-0.518-1.171-0.912-1.639
		c-0.395-0.469-0.875-0.846-1.441-1.134c-0.567-0.287-1.212-0.432-1.936-0.432c-0.706,0-1.335,0.148-1.885,0.444
		c-0.551,0.296-1.022,0.686-1.417,1.17c-0.395,0.485-0.707,1.035-0.937,1.651c-0.23,0.616-0.37,1.236-0.419,1.861H1160.063z"/>
	<path d="M1168.318,824.248v-0.937h13.48v0.937h-6.211v16.66h-1.084v-16.66H1168.318z"/>
	<path d="M1183.771,823.312v7.64h0.05c0.164-0.476,0.397-0.899,0.702-1.269c0.304-0.37,0.657-0.686,1.06-0.949
		c0.402-0.263,0.842-0.46,1.318-0.591c0.477-0.132,0.961-0.197,1.454-0.197c0.739,0,1.368,0.09,1.886,0.271
		c0.518,0.182,0.94,0.419,1.269,0.715c0.329,0.296,0.588,0.629,0.776,0.998c0.189,0.37,0.324,0.744,0.407,1.121
		c0.082,0.379,0.131,0.744,0.147,1.097c0.017,0.354,0.024,0.662,0.024,0.925v7.837h-0.937v-8.01c0-0.328-0.024-0.727-0.073-1.195
		c-0.05-0.468-0.193-0.92-0.432-1.355c-0.238-0.435-0.6-0.809-1.084-1.121c-0.485-0.312-1.154-0.469-2.009-0.469
		c-0.707,0-1.343,0.132-1.91,0.395c-0.566,0.264-1.047,0.629-1.441,1.097c-0.395,0.469-0.694,1.027-0.899,1.676
		c-0.206,0.649-0.309,1.36-0.309,2.132v6.852h-0.937v-17.597H1183.771z"/>
	<path d="M1195.846,825.851v-2.539h0.937v2.539H1195.846z M1195.846,840.908V828.24h0.937v12.668H1195.846z"/>
	<path d="M1199.765,828.24h0.937v2.711h0.05c0.164-0.476,0.397-0.899,0.702-1.269c0.304-0.37,0.657-0.686,1.06-0.949
		c0.402-0.263,0.842-0.46,1.318-0.591c0.477-0.132,0.961-0.197,1.454-0.197c0.739,0,1.368,0.09,1.886,0.271
		c0.518,0.182,0.94,0.419,1.269,0.715c0.329,0.296,0.588,0.629,0.776,0.998c0.189,0.37,0.324,0.744,0.407,1.121
		c0.082,0.379,0.131,0.744,0.147,1.097c0.017,0.354,0.024,0.662,0.024,0.925v7.837h-0.937v-8.01c0-0.328-0.024-0.727-0.073-1.195
		c-0.05-0.468-0.193-0.92-0.432-1.355c-0.238-0.435-0.6-0.809-1.084-1.121c-0.485-0.312-1.154-0.469-2.009-0.469
		c-0.707,0-1.343,0.132-1.91,0.395c-0.566,0.264-1.047,0.629-1.441,1.097c-0.395,0.469-0.694,1.027-0.899,1.676
		c-0.206,0.649-0.309,1.36-0.309,2.132v6.852h-0.937V828.24z"/>
</g>
</svg>
